<svg xmlns="http://www.w3.org/2000/svg" xmlns:xlink="http://www.w3.org/1999/xlink" xmlns:svgjs="http://svgjs.com/svgjs" version="1.1" width="512" height="512" x="0" y="0" viewBox="0 0 426.667 426.667" style="enable-background:new 0 0 512 512" xml:space="preserve"><g><path d="M373.332 426.668H266.668v-160h51.73L332 213.332h-65.332v-64c0-17.672 14.324-32 32-32h32V64h-32c-47.098.074-85.262 38.234-85.336 85.332v64H160v53.336h53.332v160h-160C23.879 426.668 0 402.789 0 373.332v-320C0 23.879 23.879 0 53.332 0h320c29.457 0 53.336 23.879 53.336 53.332v320c0 29.457-23.879 53.336-53.336 53.336zM288 405.332h85.332c17.676 0 32-14.324 32-32v-320c0-17.672-14.324-32-32-32h-320c-17.672 0-32 14.328-32 32v320c0 17.676 14.328 32 32 32H192V288h-53.332v-96H192v-42.668c.074-58.879 47.785-106.594 106.668-106.664H352v96h-53.332c-5.89 0-10.668 4.773-10.668 10.664V192h71.465l-24.531 96H288zm0 0" fill="#ffff" data-original="#000000"/></g></svg>